<svg xmlns="http://www.w3.org/2000/svg" viewBox="0 0 18 18" fill="none" xmlns:v="https://vecta.io/nano"><path d="M14.233 11.15c-.37-.383-.814-.588-1.286-.588s-.917.2-1.3.585l-1.203 1.196-.293-.152a4.832 4.832 0 0 1-.377-.201c-1.126-.714-2.15-1.645-3.13-2.85-.476-.6-.796-1.105-1.028-1.618l.883-.866.32-.323c.798-.798.798-1.83 0-2.63L5.78 2.667l-.353-.36A17.952 17.952 0 0 0 4.71 1.6c-.37-.365-.8-.56-1.274-.56s-.913.194-1.294.56l-.007.007L.84 2.9a2.778 2.778 0 0 0-.825 1.767c-.092 1.1.236 2.142.487 2.82.616 1.66 1.537 3.198 2.9 4.847a17.9 17.9 0 0 0 5.962 4.662c.875.414 2.043.904 3.348.987l.24.008c.878 0 1.617-.315 2.195-.942.004-.008.01-.012.015-.02.198-.24.426-.455.666-.687l.494-.5c.377-.39.575-.847.575-1.314s-.202-.924-.586-1.303l-2.09-2.094zm1.362 4l-.464.464a9.977 9.977 0 0 0-.734.76c-.384.4-.837.604-1.43.604-.058 0-.12 0-.176-.004-1.13-.072-2.18-.513-2.967-.89a16.898 16.898 0 0 1-5.616-4.391C2.91 10.132 2.043 8.69 1.47 7.14c-.354-.946-.483-1.683-.426-2.38.038-.444.2-.813.525-1.128l1.297-1.295c.187-.175.385-.27.58-.27.24 0 .433.144.555.266l.01.01.685.68.362.37L6.095 4.43c.404.403.404.775 0 1.178l-.327.326-.955.927c-.007.008-.015.012-.02.02-.327.326-.266.645-.198.862l.012.034c.27.653.65 1.27 1.23 2.002l.003.004c1.05 1.29 2.158 2.298 3.38 3.07.156.098.316.178.468.254l.377.2c.015.008.03.02.045.027.13.064.25.095.377.095.316 0 .513-.198.578-.262l1.3-1.3c.13-.13.335-.285.575-.285s.43.15.548.278l2.104 2.1c.39.387.39.786.003 1.19zM9.728 4.282a4.827 4.827 0 0 1 2.626 1.36 4.84 4.84 0 0 1 1.362 2.621.51.51 0 0 0 .506.426c.03 0 .057-.004.087-.008a.513.513 0 0 0 .422-.593 5.856 5.856 0 0 0-1.647-3.172 5.871 5.871 0 0 0-3.177-1.645.516.516 0 0 0-.593.418.507.507 0 0 0 .414.593zm8.264 3.658a9.635 9.635 0 0 0-2.713-5.223 9.659 9.659 0 0 0-5.23-2.71.512.512 0 1 0-.168 1.011 8.65 8.65 0 0 1 4.676 2.42 8.601 8.601 0 0 1 2.423 4.67.51.51 0 0 0 .506.425c.03 0 .057-.004.088-.008a.503.503 0 0 0 .418-.585z" fill="#00b2ff"/></svg>
